<?xml version="1.0" encoding="UTF-8" standalone="no"?>
<!-- MECE E4606 - Digital Manufacturing -->
<!-- @Author: Nihar Garg (nng2108) - nihar.garg@columbia.edu -->
<!-- @Description: Assignment 1 - SVG Generator in Python -->
<svg width="51.2in" height="35.4in" xmlns="http://www.w3.org/2000/svg">
<rect x="0in" y="0in" width="51.2in" height="35.4in" fill="none" stroke-width="0.02in" stroke="black" opacity="1" />
<rect x="15.600000000000001in" y="7.699999999999999in" width="20.0in" height="20.0in" fill="none" stroke-width="0.02in" stroke="black" opacity="1" />
<polyline points="2217.6000000000004,1771.1999999999998 1929.6000000000004,1771.1999999999998 1929.6000000000004,2155.2 2217.6000000000004,2155.2 2169.6000000000004,2155.2 2169.6000000000004,2179.2 2121.6000000000004,2179.2 2073.6000000000004,2197.2 2073.6000000000004,2305.2 2121.6000000000004,2323.2 2169.6000000000004,2323.2 2169.6000000000004,2443.2 2217.6000000000004,2443.2 2697.6000000000004,2443.2 2745.6000000000004,2443.2 2745.6000000000004,2323.2 2793.6000000000004,2323.2 2841.6000000000004,2305.2 2841.6000000000004,2197.2 2793.6000000000004,2179.2 2745.6000000000004,2179.2 2745.6000000000004,2155.2 2697.6000000000004,2155.2 2985.6000000000004,2155.2 2985.6000000000004,1771.1999999999998 2697.6000000000004,1771.1999999999998 2745.6000000000004,1771.1999999999998 2745.6000000000004,1747.1999999999998 2793.6000000000004,1747.1999999999998 2841.6000000000004,1729.1999999999998 2841.6000000000004,1621.1999999999998 2793.6000000000004,1603.1999999999998 2745.6000000000004,1603.1999999999998 2745.6000000000004,1483.1999999999998 2697.6000000000004,1483.1999999999998 2745.6000000000004,1483.1999999999998 2745.6000000000004,1099.1999999999998 2697.6000000000004,1099.1999999999998 2697.6000000000004,1027.1999999999998 2529.6000000000004,1027.1999999999998 2529.6000000000004,979.1999999999998 2511.6000000000004,931.1999999999998 2403.6000000000004,931.1999999999998 2385.6000000000004,979.1999999999998 2385.6000000000004,1027.1999999999998 2217.6000000000004,1027.1999999999998 2217.6000000000004,1099.1999999999998 2169.6000000000004,1099.1999999999998 2169.6000000000004,1483.1999999999998 2217.6000000000004,1483.1999999999998 2169.6000000000004,1483.1999999999998 2169.6000000000004,1603.1999999999998 2121.6000000000004,1603.1999999999998 2073.6000000000004,1621.1999999999998 2073.6000000000004,1729.1999999999998 2121.6000000000004,1747.1999999999998 2169.6000000000004,1747.1999999999998 2169.6000000000004,1771.1999999999998" fill="none" stroke="green" stroke-width="0.02in" />

<path stroke-dasharray="10,10" d="M2217.6000000000004 1099.1999999999998 L2217.6000000000004 2443.2" stroke="red" stroke-width="0.3in" />
<path stroke-dasharray="10,10" d="M2697.6000000000004 1099.1999999999998 L2697.6000000000004 2443.2" stroke="red" stroke-width="0.3in" />
<path stroke-dasharray="10,10" d="M2169.6000000000004 1603.1999999999998 L2169.6000000000004 1747.1999999999998" stroke="red" stroke-width="0.3in" />
<path stroke-dasharray="10,10" d="M2169.6000000000004 2179.2 L2169.6000000000004 2323.2" stroke="red" stroke-width="0.3in" />
<path stroke-dasharray="10,10" d="M2745.6000000000004 2179.2 L2745.6000000000004 2323.2" stroke="red" stroke-width="0.3in" />
<path stroke-dasharray="10,10" d="M2745.6000000000004 1603.1999999999998 L2745.6000000000004 1747.1999999999998" stroke="red" stroke-width="0.3in" />
<path stroke-dasharray="10,10" d="M2385.6000000000004 1027.1999999999998 L2529.6000000000004 1027.1999999999998" stroke="red" stroke-width="0.3in" />
<path stroke-dasharray="10,10" d="M2217.6000000000004 1099.1999999999998 L2697.6000000000004 1099.1999999999998" stroke="red" stroke-width="0.3in" />
<path stroke-dasharray="10,10" d="M2217.6000000000004 1483.1999999999998 L2697.6000000000004 1483.1999999999998" stroke="red" stroke-width="0.3in" />
<path stroke-dasharray="10,10" d="M2217.6000000000004 1771.1999999999998 L2697.6000000000004 1771.1999999999998" stroke="red" stroke-width="0.3in" />
<path stroke-dasharray="10,10" d="M2217.6000000000004 2155.2 L2697.6000000000004 2155.2" stroke="red" stroke-width="0.3in" />
<rect x="21.350000000000005in" y="18.95in" width="1.5010416666666666in" height="0.4000000000000001in" fill="none" stroke-width="0.02in" stroke="green" opacity="1" />
<rect x="21.350000000000005in" y="21.549999999999997in" width="1.5010416666666666in" height="0.4000000000000001in" fill="none" stroke-width="0.02in" stroke="green" opacity="1" />
<rect x="24.850000000000005in" y="24.299999999999997in" width="1.5010416666666666in" height="0.4000000000000001in" fill="none" stroke-width="0.02in" stroke="green" opacity="1" />
<rect x="28.350000000000005in" y="18.95in" width="1.5010416666666666in" height="0.4000000000000001in" fill="none" stroke-width="0.02in" stroke="green" opacity="1" />
<rect x="28.350000000000005in" y="21.549999999999997in" width="1.5010416666666666in" height="0.4000000000000001in" fill="none" stroke-width="0.02in" stroke="green" opacity="1" />

<path d="M2286.171428571429 1596.342857142857 L2358.171428571429 1596.342857142857 L2322.171428571429 1524.342857142857 Z" stroke="blue" stroke-width="0.02in" fill="none" />
<path d="M2304.171428571429 1560.342857142857 L2340.171428571429 1560.342857142857 L2322.171428571429 1596.342857142857 Z" stroke="blue" stroke-width="0.02in" fill="none" />
<circle cx="2277.6000000000004" cy="1380.342857142857" r="13.714285714285714" stroke="blue" stroke-width="0.02in" fill="none" />
<circle cx="2277.6000000000004" cy="1188.342857142857" r="13.714285714285714" stroke="blue" stroke-width="0.02in" fill="none" />
<circle cx="2337.6000000000004" cy="1380.342857142857" r="13.714285714285714" stroke="blue" stroke-width="0.02in" fill="none" />
<circle cx="2337.6000000000004" cy="1188.342857142857" r="13.714285714285714" stroke="blue" stroke-width="0.02in" fill="none" />
<circle cx="2397.6000000000004" cy="1380.342857142857" r="13.714285714285714" stroke="blue" stroke-width="0.02in" fill="none" />
<circle cx="2397.6000000000004" cy="1188.342857142857" r="13.714285714285714" stroke="blue" stroke-width="0.02in" fill="none" />
<circle cx="2457.6000000000004" cy="1380.342857142857" r="13.714285714285714" stroke="blue" stroke-width="0.02in" fill="none" />
<circle cx="2457.6000000000004" cy="1188.342857142857" r="13.714285714285714" stroke="blue" stroke-width="0.02in" fill="none" />
<circle cx="2517.6000000000004" cy="1380.342857142857" r="13.714285714285714" stroke="blue" stroke-width="0.02in" fill="none" />
<circle cx="2517.6000000000004" cy="1188.342857142857" r="13.714285714285714" stroke="blue" stroke-width="0.02in" fill="none" />
<circle cx="2577.6000000000004" cy="1380.342857142857" r="13.714285714285714" stroke="blue" stroke-width="0.02in" fill="none" />
<circle cx="2577.6000000000004" cy="1188.342857142857" r="13.714285714285714" stroke="blue" stroke-width="0.02in" fill="none" />
<circle cx="2637.6000000000004" cy="1380.342857142857" r="13.714285714285714" stroke="blue" stroke-width="0.02in" fill="none" />
<circle cx="2637.6000000000004" cy="1188.342857142857" r="13.714285714285714" stroke="blue" stroke-width="0.02in" fill="none" />
<polyline points="2217.6000000000004,1771.1999999999998 2217.6000000000004,1730.0571428571427 2286.171428571429,1730.0571428571427 2286.171428571429,1688.9142857142856 2354.7428571428572,1688.9142857142856 2354.7428571428572,1647.7714285714285 2423.3142857142857,1647.7714285714285 2423.3142857142857,1606.6285714285714 2491.885714285714,1606.6285714285714 2491.885714285714,1565.4857142857143 2560.4571428571426,1565.4857142857143 2560.4571428571426,1524.3428571428572 2629.028571428571,1524.3428571428572 2629.028571428571,1483.2 2697.5999999999995,1483.2" fill="none" stroke="blue" stroke-width="0.02in" />
<polyline points="2286.171428571429,1771.1999999999998 2286.171428571429,1735.934693877551 2344.9469387755103,1735.934693877551 2344.9469387755103,1700.669387755102 2403.7224489795917,1700.669387755102 2403.7224489795917,1665.404081632653 2462.497959183673,1665.404081632653 2462.497959183673,1630.1387755102041 2521.2734693877546,1630.1387755102041 2521.2734693877546,1594.8734693877552 2580.048979591836,1594.8734693877552 2580.048979591836,1559.6081632653063 2638.8244897959175,1559.6081632653063 2638.8244897959175,1524.3428571428574 2697.599999999999,1524.3428571428574" fill="none" stroke="blue" stroke-width="0.02in" />
<polyline points="2354.7428571428572,1771.1999999999998 2354.7428571428572,1741.812244897959 2403.722448979592,1741.812244897959 2403.722448979592,1712.4244897959184 2452.702040816327,1712.4244897959184 2452.702040816327,1683.0367346938776 2501.681632653062,1683.0367346938776 2501.681632653062,1653.648979591837 2550.661224489797,1653.648979591837 2550.661224489797,1624.2612244897962 2599.640816326532,1624.2612244897962 2599.640816326532,1594.8734693877554 2648.620408163267,1594.8734693877554 2648.620408163267,1565.4857142857147 2697.6000000000017,1565.4857142857147" fill="none" stroke="blue" stroke-width="0.02in" />
<polyline points="2423.3142857142857,1771.1999999999998 2423.3142857142857,1747.689795918367 2462.4979591836736,1747.689795918367 2462.4979591836736,1724.1795918367343 2501.6816326530616,1724.1795918367343 2501.6816326530616,1700.6693877551015 2540.8653061224495,1700.6693877551015 2540.8653061224495,1677.1591836734688 2580.0489795918375,1677.1591836734688 2580.0489795918375,1653.648979591836 2619.2326530612254,1653.648979591836 2619.2326530612254,1630.1387755102032 2658.4163265306133,1630.1387755102032 2658.4163265306133,1606.6285714285705 2697.6000000000013,1606.6285714285705" fill="none" stroke="blue" stroke-width="0.02in" />
<polyline points="2491.885714285714,1771.1999999999998 2491.885714285714,1753.5673469387752 2521.273469387755,1753.5673469387752 2521.273469387755,1735.9346938775507 2550.661224489796,1735.9346938775507 2550.661224489796,1718.302040816326 2580.048979591837,1718.302040816326 2580.048979591837,1700.6693877551015 2609.436734693878,1700.6693877551015 2609.436734693878,1683.036734693877 2638.824489795919,1683.036734693877 2638.824489795919,1665.4040816326524 2668.21224489796,1665.4040816326524 2668.21224489796,1647.7714285714278 2697.600000000001,1647.7714285714278" fill="none" stroke="blue" stroke-width="0.02in" />
<polyline points="2560.4571428571426,1771.1999999999998 2560.4571428571426,1759.4448979591834 2580.0489795918365,1759.4448979591834 2580.0489795918365,1747.689795918367 2599.6408163265305,1747.689795918367 2599.6408163265305,1735.9346938775507 2619.2326530612245,1735.9346938775507 2619.2326530612245,1724.1795918367343 2638.8244897959185,1724.1795918367343 2638.8244897959185,1712.424489795918 2658.4163265306124,1712.424489795918 2658.4163265306124,1700.6693877551015 2678.0081632653064,1700.6693877551015 2678.0081632653064,1688.9142857142851 2697.6000000000004,1688.9142857142851" fill="none" stroke="blue" stroke-width="0.02in" />
<polyline points="2629.028571428571,1771.1999999999998 2629.028571428571,1765.3224489795916 2638.824489795918,1765.3224489795916 2638.824489795918,1759.4448979591834 2648.620408163265,1759.4448979591834 2648.620408163265,1753.5673469387752 2658.416326530612,1753.5673469387752 2658.416326530612,1747.689795918367 2668.212244897959,1747.689795918367 2668.212244897959,1741.8122448979589 2678.008163265306,1741.8122448979589 2678.008163265306,1735.9346938775507 2687.804081632653,1735.9346938775507 2687.804081632653,1730.0571428571425 2697.6,1730.0571428571425" fill="none" stroke="blue" stroke-width="0.02in" />
<text x="21.975in" y="21.45in" textLength="2.0in" font-size="0.25in" fill="blue" transform="rotate(-90,2109.6000000000004,2059.2)" font-family="monospace">COLUMBIA<tspan x="21.975in" y="21.7in" textLength="2.0in" font-family="monospace">ENGINEERING</tspan> </text>
<text x="29.225in" y="19.45in" textLength="2.0in" font-size="0.25in" fill="blue" transform="rotate(90,2805.6000000000004,1867.1999999999998)" font-family="monospace">DIGITAL<tspan x="29.225in" y="19.7in" textLength="2.0in" font-family="monospace">MANUFACTURING</tspan> </text>
<text x="23.725in" y="23.715625in" textLength="3.75in" font-size="0.46875in" fill="blue" transform="rotate(180,2457.6000000000004,2276.7)" font-family="monospace">Memory Box</text>
<text x="23.725in" y="13.215625in" textLength="3.75in" font-size="0.46875in" fill="blue" transform="rotate(180,2457.6000000000004,1268.6999999999998)" font-family="monospace">N and N's Memories</text>
<image href="https://www.dropbox.com/s/kkp9vnktec6w0li/Columbia_Engineering_logo.svg?raw=1" x="23.725in" y="18.95in" height="3.0in" width="3.75in"/>
<rect x="20.6in" y="19.45in" width="0.6000000000000001in" height="2.0in" fill="none" stroke-width="0.02in" stroke="green" opacity="1" rx="0.20000000000000004in" ry="0.20000000000000004in" />
<rect x="30.0in" y="19.45in" width="0.6000000000000001in" height="2.0in" fill="none" stroke-width="0.02in" stroke="green" opacity="1" rx="0.20000000000000004in" ry="0.20000000000000004in" />
</svg>